<?xml version="1.0" encoding="utf-8"?>
<!-- Generator: Adobe Illustrator 22.1.0, SVG Export Plug-In . SVG Version: 6.00 Build 0)  -->
<svg version="1.1" id="Layer_1" xmlns="http://www.w3.org/2000/svg" xmlns:xlink="http://www.w3.org/1999/xlink" x="0px" y="0px"
	 viewBox="0 0 71.7 71.7" style="enable-background:new 0 0 71.7 71.7;" xml:space="preserve">
<title>twitter-black</title>
<g id="Layer_2_1_">
	<g id="Twitter">
		<path id="twitter-twitter" d="M71.7,13.6c-2.7,1.2-5.5,2-8.5,2.3c3.1-1.8,5.4-4.7,6.5-8.1c-2.9,1.7-6,2.9-9.3,3.6
			c-5.6-5.9-14.9-6.2-20.8-0.6c-3.8,3.6-5.4,8.9-4.3,14.1C23.5,24.2,12.5,18.6,5,9.4C1.1,16.1,3.1,24.7,9.5,29
			c-2.3-0.1-4.6-0.7-6.7-1.8v0.2c0,7,4.9,13,11.8,14.4c-1.3,0.3-2.6,0.5-3.9,0.5c-0.9,0-1.9-0.1-2.8-0.3c1.9,6,7.5,10.1,13.8,10.2
			c-5.2,4.1-11.6,6.3-18.3,6.3c-1.2,0-2.3-0.1-3.5-0.2C6.7,62.7,14.5,65,22.5,65c27,0,41.8-22.4,41.8-41.8c0-0.6,0-1.3,0-1.9
			C67.2,19.1,69.7,16.6,71.7,13.6z"/>
	</g>
</g>
</svg>
